PathFileType	4	(X/Y/Z)	temp_trc_file_rotated.trc
DataRate	CameraRate	NumFrames	NumMarkers	Units	OrigDataRate	OrigDataStartFrame	OrigNumFrames
250.000000	250.000000	4	40	mm	250.000000	302	806
Frame#	Time	C7			T10			LTH3			RPSI			RTH3			LTB2			LCAL			RMT2			RTB2			RCAL			RMT1			LMT2			LTH2			RTH1			LMT1			LTB1			RTH2			LTB3			LTH1			RTB1			RTB3			CLAV			LASI			STRN			RASI			LPSI			RLFC			RMFC			LLFC			LMFC			RMMAL			RLMAL			LMMAL			LLMAL			LAJC			LHJC			LKJC			RAJC			RHJC			RKJC			
		X1	Y1	Z1	X2	Y2	Z2	X3	Y3	Z3	X4	Y4	Z4	X5	Y5	Z5	X6	Y6	Z6	X7	Y7	Z7	X8	Y8	Z8	X9	Y9	Z9	X10	Y10	Z10	X11	Y11	Z11	X12	Y12	Z12	X13	Y13	Z13	X14	Y14	Z14	X15	Y15	Z15	X16	Y16	Z16	X17	Y17	Z17	X18	Y18	Z18	X19	Y19	Z19	X20	Y20	Z20	X21	Y21	Z21	X22	Y22	Z22	X23	Y23	Z23	X24	Y24	Z24	X25	Y25	Z25	X26	Y26	Z26	X27	Y27	Z27	X28	Y28	Z28	X29	Y29	Z29	X30	Y30	Z30	X31	Y31	Z31	X32	Y32	Z32	X33	Y33	Z33	X34	Y34	Z34	X35	Y35	Z35	X36	Y36	Z36	X37	Y37	Z37	X38	Y38	Z38	X39	Y39	Z39	X40	Y40	Z40	

303	1.208	3538.87939453125	-665.2630615233459	-1547.538452148438	1612.30810546875	675.3223266601562	1264.023803710938	1392.140991210938	532.2666625976562	634.1138305664062	1602.067138671875	725.03759765625	1060.916381835938	1574.553955078125	819.613525390625	660.0250244140625	1300.243774414062	545.6061401367188	325.5394287109375	1313.614501953125	628.1069946289062	54.86221694946289	1878.412353515625	771.9129028320312	59.54737091064453	1800.282836914062	800.3814086914062	360.2588806152344	2040.004272460938	723.3799438476562	196.6600494384766	1852.072265625	690.4486083984375	57.54874420166016	1095.875610351562	569.7485961914062	81.47763061523438	1331.500732421875	550.0505981445312	767.2643432617188	1526.459350585938	839.3141479492188	856.5916137695312	1077.075561523438	664.849609375	86.15180206298828	1266.949340820312	635.7191162109375	428.9840087890625	1458.256225585938	757.1363525390625	741.4952392578125	1246.637939453125	643.4711303710938	232.3691864013672	1472.728881835938	503.8652648925781	813.39990234375	1704.85107421875	704.2025756835938	404.9817810058594	1842.733154296875	708.4718017578125	267.1344909667969	1422.094848632812	665.6135864257812	1425.14453125	1423.56787109375	581.18701171875	1005.954956054688	1387.752807617188	676.8946533203125	1246.19677734375	1427.595458984375	778.6167602539062	991.83203125	1601.697021484375	614.3187255859375	1063.453369140625	1630.394775390625	773.079833984375	480.2290649414062	1620.112182617188	669.484130859375	475.0465087890625	1305.043334960938	557.3279418945312	508.6115417480469	1295.757690429688	658.8330688476562	522.5405883789062	1925.356567382812	688.3271484375	186.4813995361328	1943.718872070312	775.8314208984375	191.7720336914062	1218.0966796875	663.0591430664062	134.6137084960938	1247.900146484375	577.8858642578125	105.3411636352539	1232.998413085938	620.4724731445312	119.9774322509766	1498.802856445312	569.968017578125	915.6178588867188	1300.400512695312	608.0805053710938	515.5760498046875	1934.537719726562	732.0792846679688	189.1267242431641	1506.103271484375	757.49267578125	901.564208984375	1625.25341796875	721.281982421875	477.6377868652344	
304	1.212	3538.87939453125	-665.2630615233459	-1547.538452148438	1604.835205078125	674.7530517578125	1263.836791992188	1385.14697265625	532.3026123046875	634.0572509765625	1594.802001953125	724.4475708007812	1060.83447265625	1565.403564453125	819.9723510742188	659.0355224609375	1293.778686523438	545.5282592773438	325.4309997558594	1312.560668945312	628.0748291015625	55.75894546508789	1877.162719726562	773.0979614257812	60.42100524902344	1792.699951171875	800.9044799804688	361.4971923828125	2033.888671875	724.552978515625	203.2649536132812	1850.477661132812	690.7402954101562	57.87522506713867	1093.393310546875	570.74365234375	77.54471588134766	1323.0439453125	549.5513305664062	767.2035522460938	1518.801879882812	838.8802490234375	856.2369384765625	1075.191162109375	665.9671020507812	81.63664245605469	1260.948974609375	636.1674194335938	428.4177551269531	1449.86865234375	757.5601806640625	741.3002319335938	1242.53759765625	643.8619995117188	231.5068511962891	1464.522583007812	503.717041015625	813.69140625	1696.355590820312	704.8726196289062	404.1134338378906	1835.715087890625	709.6232299804688	268.5149230957031	1414.8212890625	665.0143432617188	1425.172485351562	1416.338500976562	581.0921630859375	1006.267028808594	1379.942504882812	676.3963623046875	1246.343139648438	1420.302368164062	778.28076171875	991.9697265625	1594.729125976562	613.79833984375	1063.631713867188	1619.855834960938	774.2434692382812	478.7350158691406	1609.350708007812	670.6903076171875	473.16162109375	1298.668212890625	557.4278564453125	508.0966796875	1288.847045898438	658.8490600585938	522.26806640625	1919.535766601562	689.7424926757812	188.586669921875	1938.205932617188	777.1187133789062	194.8301239013672	1215.16650390625	663.737060546875	133.5303497314453	1243.969360351562	578.0780639648438	104.6765747070312	1229.567993164062	620.9075317382812	119.1034622192383	1491.365844726562	569.5677490234375	915.8261108398438	1293.757568359375	608.1384887695312	515.182373046875	1928.870849609375	733.4306030273438	191.7084045410156	1498.806884765625	757.0781860351562	901.65625	1614.603271484375	722.4669189453125	475.9483032226562	
305	1.216	3538.87939453125	-665.2630615233459	-1547.538452148438	1597.410522460938	674.3024291992188	1263.698120117188	1377.893310546875	532.1552124023438	633.8871459960938	1587.28759765625	724.1776123046875	1060.732666015625	1556.168823242188	820.2713623046875	658.1890258789062	1287.670288085938	545.2446899414062	325.3605651855469	1311.55859375	628.0988159179688	56.63161849975586	1875.457397460938	773.7716064453125	61.67771148681641	1784.37841796875	801.6886596679688	362.6526489257812	2027.486572265625	725.5545043945312	209.9373016357422	1848.8232421875	690.956787109375	58.8909912109375	1091.749267578125	571.3445434570312	74.10868835449219	1314.881225585938	549.7092895507812	767.1461181640625	1511.240844726562	838.04345703125	855.7845458984375	1073.427490234375	666.9682006835938	77.51551055908203	1254.933349609375	636.697998046875	427.7139892578125	1441.104125976562	757.6074829101562	740.9931640625	1238.5986328125	643.8102416992188	230.6440277099609	1457.021484375	503.0677490234375	814.0510864257812	1687.121459960938	705.8035278320312	403.1622619628906	1828.67919921875	710.4913940429688	269.9851684570312	1407.728759765625	664.2527465820312	1425.575073242188	1407.659301757812	581.1484375	1006.574523925781	1372.180541992188	676.0167236328125	1246.53759765625	1412.867431640625	777.9669799804688	991.899658203125	1586.561645507812	613.6962890625	1063.75537109375	1609.02978515625	775.531005859375	477.1346740722656	1598.209228515625	672.0424194335938	470.9947814941406	1291.5517578125	557.74169921875	507.9986572265625	1282.040771484375	659.1812133789062	522.249755859375	1913.748046875	690.5928344726562	191.4151306152344	1932.628662109375	777.8782348632812	198.2668151855469	1212.45458984375	663.6206665039062	132.2668151855469	1240.488159179688	577.4970703125	104.0452117919922	1226.471313476562	620.5588989257812	118.1560134887695	1483.071411132812	569.0153198242188	916.2820434570312	1286.796264648438	608.4614868164062	515.1242065429688	1923.188354492188	734.2355346679688	194.8409729003906	1490.830444335938	756.4592895507812	901.4202880859375	1603.619506835938	723.7867431640625	474.0647277832031	
306	1.22	3538.87939453125	-665.2630615233459	-1547.538452148438	1590.02734375	673.6822509765625	1263.5556640625	1370.2197265625	531.8386840820312	633.7755737304688	1579.984252929688	723.8527221679688	1060.41845703125	1546.735107421875	820.6849975585938	657.334716796875	1282.185424804688	545.0220336914062	325.2627258300781	1310.77099609375	627.9207763671875	57.17915344238281	1873.762817382812	773.5518798828125	62.84354782104492	1775.327026367188	802.1636352539062	363.572509765625	2020.634765625	726.3353271484375	216.8779144287109	1846.882202148438	691.1400756835938	59.7910041809082	1090.2802734375	571.7064819335938	70.95375823974609	1306.420532226562	549.5125122070312	767.08837890625	1503.483764648438	837.5404052734375	855.4322509765625	1071.985107421875	667.4093017578125	74.07099151611328	1248.947875976562	636.7327880859375	426.8927917480469	1432.203735351562	757.6345825195312	740.6025390625	1234.912109375	644.2044677734375	229.7011566162109	1450.986572265625	501.421875	814.4435424804688	1677.15771484375	706.4252319335938	401.9755859375	1820.86181640625	711.5934448242188	271.4505310058594	1400.4091796875	663.4320678710938	1425.964233398438	1398.87841796875	580.6158447265625	1006.517700195312	1364.4599609375	675.467529296875	1246.728515625	1405.512939453125	777.3402709960938	991.8094482421875	1579.544555664062	613.3517456054688	1063.776489257812	1597.981689453125	776.738037109375	475.5744323730469	1586.984497070312	673.2936401367188	469.0174560546875	1282.7177734375	558.4376220703125	508.8390502929688	1273.624267578125	659.8355102539062	523.6480102539062	1907.366333007812	691.9205932617188	194.1145477294922	1926.287353515625	779.1279907226562	201.7967224121094	1210.0693359375	664.3010864257812	131.1843109130859	1237.730102539062	577.9881591796875	103.1741561889648	1223.899658203125	621.1446533203125	117.1792297363281	1475.13818359375	568.2234497070312	916.4650268554688	1278.171020507812	609.1365966796875	516.2435302734375	1916.826782226562	735.5242919921875	197.9556427001953	1482.774658203125	755.6273193359375	901.0444946289062	1592.483154296875	725.015869140625	472.2959594726562	
